<svg xmlns="http://www.w3.org/2000/svg" viewBox="0 0 512 512" role="img" aria-labelledby="title desc">
  <title id="title">001-兔兔贴贴</title>
  <desc id="desc">粉色爱心背景，两只白色软乎乎的小兔脸贴脸。</desc>
  <defs>
    <radialGradient id="bg" cx="50%" cy="42%" r="70%">
      <stop offset="0%" stop-color="#fff4fb"/>
      <stop offset="55%" stop-color="#ffd6ea"/>
      <stop offset="100%" stop-color="#f8aecf"/>
    </radialGradient>
    <filter id="shadow" x="-20%" y="-20%" width="140%" height="140%">
      <feDropShadow dx="0" dy="10" stdDeviation="12" flood-color="#c46397" flood-opacity="0.22"/>
    </filter>
  </defs>

  <rect width="512" height="512" rx="88" fill="url(#bg)"/>

  <g opacity="0.72" fill="#fff7fc">
    <path d="M92 148c-18-24-55-8-55 22 0 32 43 56 55 66 12-10 55-34 55-66 0-30-37-46-55-22z"/>
    <path d="M415 96c-13-18-42-6-42 16 0 24 33 43 42 50 9-7 42-26 42-50 0-22-29-34-42-16z"/>
    <path d="M430 333c-16-21-49-7-49 20 0 28 38 50 49 59 11-9 49-31 49-59 0-27-33-41-49-20z"/>
    <circle cx="82" cy="332" r="10"/>
    <circle cx="450" cy="221" r="8"/>
    <circle cx="154" cy="88" r="7"/>
  </g>

  <g fill="#ffffff" opacity="0.88">
    <path d="M103 260l11 23 25 4-18 18 4 25-22-12-22 12 4-25-18-18 25-4z"/>
    <path d="M396 250l8 17 19 3-14 13 3 19-16-9-17 9 4-19-14-13 19-3z"/>
    <path d="M262 58l7 14 15 2-11 11 3 15-14-7-14 7 3-15-11-11 15-2z"/>
  </g>

  <g filter="url(#shadow)">
    <!-- left bunny -->
    <g transform="translate(68 124)">
      <path d="M101 108C86 61 95 17 119 11c23-6 49 28 60 78" fill="#fff" stroke="#e8b5cf" stroke-width="7" stroke-linecap="round"/>
      <path d="M174 103c8-49 33-84 56-78 23 6 28 50 10 96" fill="#fff" stroke="#e8b5cf" stroke-width="7" stroke-linecap="round"/>
      <ellipse cx="165" cy="190" rx="109" ry="98" fill="#fff" stroke="#e8b5cf" stroke-width="7"/>
      <ellipse cx="132" cy="189" rx="8" ry="10" fill="#5f5161"/>
      <ellipse cx="193" cy="189" rx="8" ry="10" fill="#5f5161"/>
      <path d="M161 206c7 6 12 6 19 0" fill="none" stroke="#8d7688" stroke-width="5" stroke-linecap="round"/>
      <circle cx="110" cy="211" r="14" fill="#ffd5e6" opacity="0.9"/>
      <circle cx="214" cy="211" r="14" fill="#ffd5e6" opacity="0.9"/>
    </g>

    <!-- right bunny -->
    <g transform="translate(198 130)">
      <path d="M86 100C71 54 80 15 103 10c22-5 46 28 57 76" fill="#fff" stroke="#e8b5cf" stroke-width="7" stroke-linecap="round"/>
      <path d="M154 94c8-47 32-80 54-74 22 5 27 47 10 91" fill="#fff" stroke="#e8b5cf" stroke-width="7" stroke-linecap="round"/>
      <ellipse cx="144" cy="181" rx="101" ry="92" fill="#fff" stroke="#e8b5cf" stroke-width="7"/>
      <ellipse cx="113" cy="181" rx="8" ry="10" fill="#5f5161"/>
      <ellipse cx="169" cy="181" rx="8" ry="10" fill="#5f5161"/>
      <path d="M139 198c7 6 12 6 19 0" fill="none" stroke="#8d7688" stroke-width="5" stroke-linecap="round"/>
      <circle cx="93" cy="202" r="13" fill="#ffd5e6" opacity="0.9"/>
      <circle cx="191" cy="202" r="13" fill="#ffd5e6" opacity="0.9"/>
    </g>
  </g>

  <path d="M256 365c-12-17-42-9-42 15 0 27 36 43 42 51 6-8 42-24 42-51 0-24-30-32-42-15z" fill="#ff8fc2" opacity="0.82"/>
</svg>
